<svg width="80px" height="100px" viewBox="0 0 80 100" version="1.1" xmlns="http://www.w3.org/2000/svg" xmlns:xlink="http://www.w3.org/1999/xlink">
    <g>
        <path d="M54.6402865,82.1970213 L72.7084269,82.1970213 L72.7084269,22.7493617 L56.1737135,22.7493617 L56.1737135,59.7885106 L51.3740702,55.1051064 L51.3740702,25.5778723 C51.289117,8.22680851 53.3651345,-1.42108547e-14 53.3651345,-1.42108547e-14 C47.7680409,-1.42108547e-14 44.8638363,5.28595745 44.2162281,6.84851064 C41.0738129,7.19446809 38.4961871,8.99957447 36.7727895,12.5076596 C35.7964678,14.4931915 35.3098012,16.4178723 35.1360526,17.3582979 C28.5122632,18.8817021 27.9385088,30.6412766 28.3730936,32.7531915 L18.0856433,22.7493617 L0.0640350877,22.7493617 L0.0640350877,82.1970213 L16.6000292,82.1970213 L16.6000292,46.2693617 C16.6000292,46.2693617 24.5950234,53.8195745 24.5941696,53.8187234 C25.3216082,55.9851064 26.0277018,56.8523404 26.0277018,56.8523404 L22.8882749,54.1693617 C22.3213509,60.0021277 23.9666257,62.9923404 25.4949298,65.2034043 L21.6784386,61.9774468 C21.3825965,67.7680851 24.1873333,71.3208511 25.9060351,72.8476596 L20.8604971,70.3804255 C20.5147076,73.8459574 24.0024854,78.9221277 26.0277018,79.9012766 L21.771076,79.2689362 C22.6965965,84.0476596 26.0277018,85.7655319 26.0277018,85.7655319 C26.0277018,85.7655319 18.7580117,85.613617 15.4128187,85.613617 C6.10766667,85.613617 4.57574159e-13,86.4919149 4.57574159e-13,86.4919149 C4.57574159e-13,86.4919149 4.11745614,90.572766 9.37943275,90.7617021 L4.69334503,93.6412766 C8.09531579,94.7485106 11.3295146,94.3634043 11.3295146,94.3634043 L8.62296491,97.5906383 C8.62296491,97.5906383 17.1417661,94.326383 20.7371228,94.5740426 C23.600345,94.7706383 36.9614795,99.9638298 45.9319415,99.9638298 C51.9512398,99.9638298 56.3120292,97.6680851 59.8164561,95.8221277 C61.9543743,94.6970213 63.797731,93.7859574 65.6163275,93.5076596 C68.8671754,93.0097872 70.3314444,94.1897872 70.3314444,94.1897872 C70.6631462,92.8259574 71.6684971,89.3834043 66.3967018,88.5417021 C66.1883743,87.6051064 65.2752339,86.3825532 63.9112865,86.1761702 C61.0788012,85.7480851 49.1571754,84.8323404 48.8079708,84.8114894 C47.7855439,84.7502128 44.3464327,84.0885106 47.5089123,79.5731915 C47.7479766,79.2323404 49.3471462,77.2242553 49.3471462,77.2242553 L54.6402865,82.1970213 L54.6402865,82.1970213 Z M54.2168012,86.6391489 C58.1297719,86.9391489 60.9101754,87.2 63.7025322,87.5493617 C64.7582573,87.6821277 65.1774737,88.8982979 65.3170702,89.4689362 C63.9804444,89.1382979 61.8660058,89.0502128 61.8660058,89.0502128 L61.7498889,90.313617 C61.7498889,90.313617 63.5582398,89.7982979 65.536924,89.7757447 C65.536924,89.7757447 69.5984561,89.7574468 69.4050702,92.4910638 C68.2968363,91.727234 66.0295673,92.0314894 65.3892164,92.1361702 C63.3507661,92.4702128 61.4105029,93.4119149 59.1650058,94.5944681 C57.1107602,95.6765957 54.8947193,96.8404255 52.2906257,97.6280851 C53.4304503,96.5229787 56.4102164,93.2455319 56.4102164,93.2455319 L52.4391871,91.8668085 L55.6908889,89.0395745 L50.6948713,86.3442553 C51.941848,86.4497872 53.1209474,86.5561702 54.2168012,86.6391489 Z M48.4416901,75.9919149 C46.6017485,78.1178723 44.2136667,81.1438298 44.7306433,83.3497872 C44.7306433,83.3497872 44.7306433,83.3510638 44.7314971,83.3519149 C45.1148538,85.1795745 47.7014444,86.3042553 47.7014444,86.3042553 L53.2618246,89.3080851 L49.6532339,92.4468085 L53.9832865,93.8076596 C53.9832865,93.8076596 50.013538,97.8642553 49.558462,98.2706383 C48.4250409,98.4608511 47.2237427,98.5748936 45.9319415,98.5748936 C36.7454678,98.5748936 23.9708947,93.1702128 20.8105497,93.1310638 C17.0000351,93.0846809 12.2131988,95.2744681 12.2131988,95.2744681 L14.7131287,92.5774468 C14.7131287,92.5774468 11.4422164,93.2382979 8.27034503,92.9697872 L12.7421287,89.9421277 C8.81421637,89.8148936 5.37382456,88.6489362 3.75288304,87.5068085 C3.75288304,87.5068085 10.9845789,86.9357447 20.7904854,87.0395745 C24.7585263,87.0821277 31.4856257,87.4787234 31.4856257,87.4787234 C28.1604971,86.0697872 25.0513801,84.2148936 23.7173158,80.9544681 L30.0580702,81.9068085 C27.3959181,80.2821277 23.5311871,76.213617 22.819117,73.0646809 L29.8898713,75.5353191 C28.6347836,74.1782979 24.261614,70.0974468 23.4752632,65.3668085 L29.071076,68.8757447 C27.6042456,67.4029787 23.6298012,59.5846809 24.3060117,57.2982979 L29.521883,60.7948936 C27.0249415,57.7174468 24.1032339,49.5625532 26.0917368,46.3859574 C27.6768187,52.5319149 31.2072865,54.7693617 31.2072865,54.7693617 C28.8900702,51.4234043 23.8914912,39.5689362 28.6650936,34.3497872 C29.9189006,46.1714894 34.9601696,50.1634043 34.9601696,50.1634043 C30.7867895,43.533617 26.0328246,23.1829787 34.9008304,19.0676596 C33.1641988,32.1421277 37.3559357,39.2497872 37.3559357,39.2497872 C34.7100058,27.2034043 34.7966667,10.1357447 43.7773743,8.57574468 C39.3674912,21.4438298 42.5000877,31.3676596 42.5000877,31.3676596 C41.8571754,1.26765957 51.585386,1.77477861 51.585386,1.77477861 C51.585386,1.77477861 49.9857895,10.3221277 49.9857895,25.5544681 L49.9857895,69.5442553 C49.9857895,72.5817021 49.7249532,74.392766 48.4416901,75.9919149 L48.4416901,75.9919149 Z" id="Fill-1" fill="#1C57A5"></path>
        <path d="M54.2168012,86.6391489 C58.1297719,86.9391489 60.9101754,87.2 63.7025322,87.5493617 C64.7582573,87.6821277 65.1774737,88.8982979 65.3170702,89.4689362 C63.9804444,89.1382979 61.8660058,89.0502128 61.8660058,89.0502128 L61.7498889,90.313617 C61.7498889,90.313617 63.5582398,89.7982979 65.536924,89.7757447 C65.536924,89.7757447 69.5984561,89.7574468 69.4050702,92.4910638 C68.2968363,91.727234 66.0295673,92.0314894 65.3892164,92.1361702 C63.3507661,92.4702128 61.4105029,93.4119149 59.1650058,94.5944681 C57.1107602,95.6765957 54.8947193,96.8404255 52.2906257,97.6280851 C53.4304503,96.5229787 56.4102164,93.2455319 56.4102164,93.2455319 L52.4391871,91.8668085 L55.6908889,89.0395745 L50.6948713,86.3442553 C51.941848,86.4497872 53.1209474,86.5561702 54.2168012,86.6391489 M48.4416901,75.9919149 C46.6017485,78.1178723 44.2136667,81.1438298 44.7306433,83.3497872 C44.7306433,83.3497872 44.7306433,83.3510638 44.7314971,83.3519149 C45.1148538,85.1795745 47.7014444,86.3042553 47.7014444,86.3042553 L53.2618246,89.3080851 L49.6532339,92.4468085 L53.9832865,93.8076596 C53.9832865,93.8076596 50.013538,97.8642553 49.558462,98.2706383 C48.4250409,98.4608511 47.2237427,98.5748936 45.9319415,98.5748936 C36.7454678,98.5748936 23.9708947,93.1702128 20.8105497,93.1310638 C17.0000351,93.0846809 12.2131988,95.2744681 12.2131988,95.2744681 L14.7131287,92.5774468 C14.7131287,92.5774468 11.4422164,93.2382979 8.27034503,92.9697872 L12.7421287,89.9421277 C8.81421637,89.8148936 5.37382456,88.6489362 3.75288304,87.5068085 C3.75288304,87.5068085 10.9845789,86.9357447 20.7904854,87.0395745 C24.7585263,87.0821277 31.4856257,87.4787234 31.4856257,87.4787234 C28.1604971,86.0697872 25.0513801,84.2148936 23.7173158,80.9544681 L30.0580702,81.9068085 C27.3959181,80.2821277 23.5311871,76.213617 22.819117,73.0646809 L29.8898713,75.5353191 C28.6347836,74.1782979 24.261614,70.0974468 23.4752632,65.3668085 L29.071076,68.8757447 C27.6042456,67.4029787 23.6298012,59.5846809 24.3060117,57.2982979 L29.521883,60.7948936 C27.0249415,57.7174468 24.1032339,49.5625532 26.0917368,46.3859574 C27.6768187,52.5319149 31.2072865,54.7693617 31.2072865,54.7693617 C28.8900702,51.4234043 23.8914912,39.5689362 28.6650936,34.3497872 C29.9189006,46.1714894 34.9601696,50.1634043 34.9601696,50.1634043 C30.7867895,43.533617 26.0328246,23.1829787 34.9008304,19.0676596 C33.1641988,32.1421277 37.3559357,39.2497872 37.3559357,39.2497872 C34.7100058,27.2034043 34.7966667,10.1357447 43.7773743,8.57574468 C39.3674912,21.4438298 42.5000877,31.3676596 42.5000877,31.3676596 C41.8571754,1.26765957 51.585386,1.77477861 51.585386,1.77477861 C51.585386,1.77477861 49.9857895,10.3221277 49.9857895,25.5544681 L49.9857895,69.5442553 C49.9857895,72.5817021 49.7249532,74.392766 48.4416901,75.9919149" id="Fill-19" fill="#FFFFFE"></path>
        <path d="M77.1363588,25.3787404 L77.4039987,25.3787404 C77.71554,25.3787404 77.967312,25.2723344 77.967312,25.0146916 C77.967312,24.7878362 77.8049297,24.6360592 77.4484291,24.6360592 C77.299799,24.6360592 77.1955993,24.6511829 77.1363588,24.6668467 L77.1363588,25.3787404 L77.1363588,25.3787404 Z M77.1220776,26.7879443 L76.5571776,26.7879443 L76.5571776,24.3027979 C76.7798582,24.2568867 77.0913996,24.2266393 77.4933883,24.2266393 C77.9530308,24.2266393 78.1603724,24.3027979 78.3386227,24.4086637 C78.4713847,24.5150697 78.5755845,24.7116776 78.5755845,24.9541968 C78.5755845,25.2269634 78.367714,25.4392352 78.0720406,25.5305174 L78.0720406,25.5607648 C78.3090024,25.651507 78.4428224,25.8335314 78.516344,26.1667927 C78.5909235,26.5454251 78.634296,26.6972021 78.6951232,26.7879443 L78.0863218,26.7879443 C78.0122712,26.6972021 77.967312,26.4698066 77.8932614,26.1819164 C77.84936,25.9091498 77.7007299,25.7876202 77.3891886,25.7876202 L77.1220776,25.7876202 L77.1220776,26.7879443 Z M75.6225537,25.4851464 C75.6225537,26.5907962 76.4244155,27.4701307 77.5219507,27.4701307 C78.5909235,27.4701307 79.3763884,26.5907962 79.3763884,25.4997299 C79.3763884,24.39354 78.5909235,23.4996219 77.5071406,23.4996219 C76.4244155,23.4996219 75.6225537,24.39354 75.6225537,25.4851464 L75.6225537,25.4851464 Z M80,25.4851464 C80,26.8938101 78.9172749,28 77.5071406,28 C76.1128742,28 75,26.8938101 75,25.4851464 C75,24.1061899 76.1128742,23 77.5071406,23 C78.9172749,23 80,24.1061899 80,25.4851464 L80,25.4851464 Z" id="Fill-6" fill="#1C57A5"></path>
    </g>
</svg>